<svg width="177" height="39" viewBox="0 0 177 39" fill="none" xmlns="http://www.w3.org/2000/svg">
<path d="M46.488 32.5V7.3H55.38C57.108 7.3 58.632 7.636 59.952 8.308C61.272 8.98 62.304 9.916 63.048 11.116C63.792 12.292 64.164 13.66 64.164 15.22C64.164 16.78 63.768 18.16 62.976 19.36C62.208 20.56 61.14 21.508 59.772 22.204C58.404 22.876 56.856 23.212 55.128 23.212H50.664V32.5H46.488ZM60.456 32.5L54.552 22.276L57.792 20.044L65.172 32.5H60.456ZM50.664 19.36H55.56C56.376 19.36 57.096 19.18 57.72 18.82C58.368 18.46 58.884 17.968 59.268 17.344C59.676 16.72 59.88 16.012 59.88 15.22C59.88 14.02 59.448 13.036 58.584 12.268C57.72 11.5 56.604 11.116 55.236 11.116H50.664V19.36ZM75.9319 32.932C74.1799 32.932 72.6199 32.536 71.2519 31.744C69.9079 30.928 68.8399 29.812 68.0479 28.396C67.2799 26.98 66.8959 25.348 66.8959 23.5C66.8959 21.652 67.2919 20.02 68.0839 18.604C68.8759 17.188 69.9559 16.084 71.3239 15.292C72.7159 14.476 74.2999 14.068 76.0759 14.068C77.6839 14.068 79.1359 14.488 80.4319 15.328C81.7279 16.144 82.7479 17.332 83.4919 18.892C84.2599 20.452 84.6439 22.312 84.6439 24.472H70.4959L71.0359 23.968C71.0359 25.072 71.2759 26.032 71.7559 26.848C72.2359 27.64 72.8719 28.252 73.6639 28.684C74.4559 29.116 75.3319 29.332 76.2919 29.332C77.3959 29.332 78.3079 29.092 79.0279 28.612C79.7479 28.108 80.3119 27.46 80.7199 26.668L84.2839 28.18C83.7799 29.14 83.1319 29.98 82.3399 30.7C81.5719 31.42 80.6479 31.972 79.5679 32.356C78.5119 32.74 77.2999 32.932 75.9319 32.932ZM71.2879 21.88L70.7119 21.376H80.8639L80.3239 21.88C80.3239 20.896 80.1079 20.092 79.6759 19.468C79.2439 18.82 78.6919 18.34 78.0199 18.028C77.3719 17.692 76.6879 17.524 75.9679 17.524C75.2479 17.524 74.5279 17.692 73.8079 18.028C73.0879 18.34 72.4879 18.82 72.0079 19.468C71.5279 20.092 71.2879 20.896 71.2879 21.88ZM86.982 32.5V14.5H90.762L91.014 17.812V32.5H86.982ZM99.186 32.5V23.284H103.218V32.5H99.186ZM99.186 23.284C99.186 21.844 99.018 20.74 98.682 19.972C98.37 19.18 97.914 18.628 97.314 18.316C96.738 18.004 96.054 17.848 95.262 17.848C93.918 17.824 92.874 18.268 92.13 19.18C91.386 20.092 91.014 21.4 91.014 23.104H89.502C89.502 21.208 89.778 19.588 90.33 18.244C90.882 16.876 91.674 15.844 92.706 15.148C93.738 14.428 94.962 14.068 96.378 14.068C97.818 14.068 99.042 14.356 100.05 14.932C101.082 15.508 101.862 16.408 102.39 17.632C102.942 18.832 103.218 20.404 103.218 22.348V23.284H99.186ZM114.832 32.932C113.032 32.932 111.424 32.536 110.008 31.744C108.616 30.928 107.524 29.812 106.732 28.396C105.94 26.98 105.544 25.348 105.544 23.5C105.544 21.652 105.928 20.02 106.696 18.604C107.488 17.188 108.58 16.084 109.972 15.292C111.364 14.476 112.96 14.068 114.76 14.068C116.56 14.068 118.156 14.476 119.548 15.292C120.94 16.084 122.02 17.188 122.788 18.604C123.58 20.02 123.976 21.652 123.976 23.5C123.976 25.348 123.592 26.98 122.824 28.396C122.056 29.812 120.976 30.928 119.584 31.744C118.192 32.536 116.608 32.932 114.832 32.932ZM114.832 29.224C115.816 29.224 116.692 28.984 117.46 28.504C118.228 28 118.828 27.328 119.26 26.488C119.692 25.624 119.908 24.628 119.908 23.5C119.908 22.372 119.68 21.388 119.224 20.548C118.792 19.684 118.192 19.012 117.424 18.532C116.656 18.028 115.768 17.776 114.76 17.776C113.752 17.776 112.864 18.016 112.096 18.496C111.328 18.976 110.728 19.648 110.296 20.512C109.864 21.376 109.648 22.372 109.648 23.5C109.648 24.628 109.864 25.624 110.296 26.488C110.752 27.328 111.364 28 112.132 28.504C112.924 28.984 113.824 29.224 114.832 29.224ZM131.848 32.5L138.868 14.5H143.044L135.628 32.5H131.848ZM131.56 32.5L124.108 14.5H128.248L135.304 32.5H131.56ZM155.302 32.5L155.122 29.116V23.248C155.122 22.024 154.99 21.004 154.726 20.188C154.486 19.348 154.078 18.712 153.502 18.28C152.95 17.824 152.206 17.596 151.27 17.596C150.406 17.596 149.65 17.776 149.002 18.136C148.354 18.496 147.802 19.06 147.346 19.828L143.818 18.532C144.202 17.74 144.706 17.008 145.33 16.336C145.978 15.64 146.782 15.088 147.742 14.68C148.726 14.272 149.902 14.068 151.27 14.068C153.022 14.068 154.486 14.416 155.662 15.112C156.838 15.784 157.702 16.756 158.254 18.028C158.83 19.3 159.118 20.836 159.118 22.636L159.01 32.5H155.302ZM150.118 32.932C147.958 32.932 146.278 32.452 145.078 31.492C143.902 30.532 143.314 29.176 143.314 27.424C143.314 25.552 143.938 24.124 145.186 23.14C146.458 22.156 148.222 21.664 150.478 21.664H155.302V24.76H151.774C150.166 24.76 149.038 24.988 148.39 25.444C147.742 25.876 147.418 26.5 147.418 27.316C147.418 28.012 147.694 28.564 148.246 28.972C148.822 29.356 149.614 29.548 150.622 29.548C151.534 29.548 152.326 29.344 152.998 28.936C153.67 28.528 154.186 27.988 154.546 27.316C154.93 26.644 155.122 25.888 155.122 25.048H156.31C156.31 27.496 155.818 29.428 154.834 30.844C153.85 32.236 152.278 32.932 150.118 32.932ZM169.003 32.932C167.803 32.932 166.699 32.752 165.691 32.392C164.683 32.032 163.819 31.528 163.099 30.88C162.379 30.208 161.827 29.428 161.443 28.54L164.935 26.992C165.295 27.664 165.823 28.228 166.519 28.684C167.239 29.14 168.031 29.368 168.895 29.368C169.831 29.368 170.575 29.212 171.127 28.9C171.703 28.564 171.991 28.108 171.991 27.532C171.991 26.98 171.775 26.56 171.343 26.272C170.911 25.96 170.299 25.708 169.507 25.516L167.815 25.048C166.111 24.616 164.779 23.932 163.819 22.996C162.859 22.036 162.379 20.944 162.379 19.72C162.379 17.92 162.955 16.528 164.107 15.544C165.283 14.56 166.963 14.068 169.147 14.068C170.251 14.068 171.259 14.236 172.171 14.572C173.107 14.884 173.911 15.34 174.583 15.94C175.255 16.516 175.723 17.2 175.987 17.992L172.639 19.504C172.399 18.904 171.943 18.448 171.271 18.136C170.599 17.8 169.855 17.632 169.039 17.632C168.223 17.632 167.587 17.812 167.131 18.172C166.675 18.508 166.447 18.988 166.447 19.612C166.447 19.972 166.651 20.308 167.059 20.62C167.467 20.908 168.055 21.148 168.823 21.34L170.947 21.844C172.123 22.132 173.083 22.588 173.827 23.212C174.571 23.812 175.123 24.496 175.483 25.264C175.843 26.008 176.023 26.764 176.023 27.532C176.023 28.612 175.711 29.56 175.087 30.376C174.487 31.192 173.659 31.828 172.603 32.284C171.547 32.716 170.347 32.932 169.003 32.932Z" fill="white"/>
<path d="M32.2116 37.9641H6.78844C5.31114 37.9576 3.89636 37.3671 2.85288 36.3213C1.8094 35.2756 1.22195 33.8595 1.21875 32.3822V13.5159C1.22485 12.5158 1.49955 11.5357 2.0141 10.6782C2.52866 9.82056 3.26418 9.11696 4.14375 8.64094L16.8309 1.70625C17.6481 1.26144 18.5636 1.0284 19.4939 1.0284C20.4242 1.0284 21.3398 1.26144 22.1569 1.70625L34.8806 8.60438C35.7602 9.0804 36.4957 9.78399 37.0103 10.6416C37.5248 11.4992 37.7995 12.4793 37.8056 13.4794V32.3822C37.8024 33.8637 37.2116 35.2835 36.1629 36.3299C35.1141 37.3764 33.6931 37.9641 32.2116 37.9641ZM19.5 3.46125C18.9767 3.46048 18.4614 3.59034 18.0009 3.83906L5.27719 10.7494C4.78367 11.0227 4.37277 11.4238 4.08758 11.9105C3.80239 12.3973 3.6534 12.9518 3.65625 13.5159V32.3822C3.65625 33.2161 3.98753 34.0159 4.57722 34.6056C5.1669 35.1953 5.96668 35.5266 6.80062 35.5266H32.2116C33.0434 35.5233 33.84 35.1906 34.4271 34.6013C35.0141 34.012 35.3438 33.214 35.3438 32.3822V13.5159C35.3442 12.9493 35.1916 12.3931 34.9019 11.9062C34.6123 11.4192 34.1965 11.0195 33.6984 10.7494L20.9991 3.85125C20.5397 3.59828 20.0244 3.46422 19.5 3.46125Z" fill="#FF1919"/>
<path d="M19.5 32.6138C17.8036 32.6141 16.1598 32.0246 14.8502 30.9463C13.5406 29.8679 12.6467 28.3678 12.3216 26.7028C12.2951 26.5281 12.3068 26.3498 12.3561 26.1801C12.4054 26.0105 12.4909 25.8535 12.6068 25.7202C12.7228 25.5869 12.8663 25.4804 13.0275 25.408C13.1887 25.3357 13.3637 25.2993 13.5403 25.3013C13.8307 25.297 14.113 25.3966 14.3364 25.5821C14.5599 25.7675 14.7097 26.0267 14.7591 26.3128C14.9886 27.4084 15.5882 28.3916 16.457 29.0973C17.3259 29.803 18.4111 30.1882 19.5305 30.1882C20.6498 30.1882 21.7351 29.803 22.6039 29.0973C23.4728 28.3916 24.0724 27.4084 24.3019 26.3128C24.3512 26.0267 24.5011 25.7675 24.7245 25.5821C24.948 25.3966 25.2303 25.297 25.5206 25.3013C25.6973 25.2993 25.8723 25.3357 26.0335 25.408C26.1947 25.4804 26.3382 25.5869 26.4541 25.7202C26.57 25.8535 26.6556 26.0105 26.7049 26.1801C26.7541 26.3498 26.7659 26.5281 26.7394 26.7028C26.4123 28.3781 25.5094 29.8862 24.1872 30.9658C22.8651 32.0453 21.2069 32.6283 19.5 32.6138Z" fill="#FF1919"/>
</svg>
